<?xml version="1.0" encoding="utf-8"?>
<!-- Generator: Adobe Illustrator 16.0.0, SVG Export Plug-In . SVG Version: 6.00 Build 0)  -->
<!DOCTYPE svg PUBLIC "-//W3C//DTD SVG 1.1//EN" "http://www.w3.org/Graphics/SVG/1.1/DTD/svg11.dtd">
<svg version="1.1" id="Capa_1" xmlns="http://www.w3.org/2000/svg" xmlns:xlink="http://www.w3.org/1999/xlink" x="0px" y="0px"
	 width="256px" height="131px" viewBox="0 0 256 131" enable-background="new 0 0 256 131" xml:space="preserve">
<g>
	<g>
		<path fill="#EB7077" stroke="#EB7077" stroke-width="0.0938" d="M63.182,4.2c0.926-1.575,2.131-3.088,3.86-3.829
			c0.71-0.124,1.421-0.062,2.131-0.062h34.957c-1.019,0.865-2.007,1.76-2.687,2.934c-1.791,2.934-2.996,6.207-4.107,9.48
			c-3.15,9.882-5.342,20.042-7.473,30.201c-0.957,4.602-1.883,9.233-2.748,13.834c-2.656,15.07-5.404,30.109-8.832,45.024
			c-1.637,6.887-3.304,13.772-5.836,20.412c-1.173,2.749-2.316,5.683-4.57,7.72c-0.525,0.464-1.05,1.051-1.791,0.958H35.204
			c-2.1-0.062-4.168,0.124-6.269-0.093c1.39-1.081,2.625-2.378,3.428-3.922c2.316-4.416,3.768-9.203,5.157-13.958
			c2.162-7.658,3.891-15.409,5.527-23.161c1.019-5.095,2.224-10.159,2.965-15.285c0.833-5.713,2.1-11.364,3.119-17.046
			c1.606-8.369,3.304-16.737,5.188-25.044c1.513-6.485,3.057-12.939,5.126-19.27C60.464,10.036,61.576,7.01,63.182,4.2z"/>
		<path fill="#F6A2AD" stroke="#F6A2AD" stroke-width="0.0938" d="M104.129,0.309c0.896,0,1.791-0.031,2.687,0
			c1.977,1.05,3.644,2.718,4.57,4.787c1.235,2.347,2.254,4.817,3.181,7.35c3.088,9.542,5.188,19.362,7.288,29.151
			c1.791,8.77,3.489,17.571,5.095,26.403c0.124,0.464-0.031,1.112,0.586,1.235c-2.223,11.611-4.416,23.253-7.195,34.771
			c-1.513,6.207-3.119,12.383-5.404,18.374c-1.235,2.995-2.501,6.269-5.126,8.399c-1.667,0.371-2.872-0.896-3.891-2.038
			c-1.76-2.255-2.841-4.91-3.891-7.565c-3.489-9.512-5.62-19.424-7.782-29.307c-1.637-7.688-3.088-15.439-4.601-23.16
			c-0.68-3.921-1.606-7.782-2.131-11.704c-0.093-0.062-0.309-0.185-0.401-0.247c0.865-4.601,1.791-9.233,2.748-13.834
			c2.131-10.16,4.323-20.319,7.473-30.201c1.112-3.273,2.316-6.546,4.107-9.48C102.122,2.069,103.11,1.173,104.129,0.309z"/>
		<path fill="#EB7077" stroke="#EB7077" stroke-width="0.0938" d="M142.761,5.651c1.112-2.131,2.471-4.509,4.88-5.312
			c12.259-0.062,24.519-0.031,36.778-0.031c-1.143,1.143-2.347,2.285-3.119,3.737c-2.378,4.261-3.768,8.986-5.188,13.649
			c-3.643,12.847-6.207,25.971-8.646,39.095c-2.254,12.939-4.662,25.878-7.41,38.755c-1.422,6.484-2.903,12.938-4.787,19.331
			c-1.205,3.952-2.471,7.937-4.447,11.61c-0.957,1.668-2.068,3.49-3.891,4.354c-11.703,0.093-23.438,0-35.142,0.031
			c-0.648,0-1.328,0-1.976-0.093c2.625-2.131,3.891-5.404,5.126-8.399c2.285-5.991,3.891-12.167,5.404-18.374
			c2.779-11.519,4.972-23.16,7.195-34.771c2.687-14.977,5.497-29.954,9.079-44.746C138.283,18.096,139.889,11.611,142.761,5.651z"/>
		<path fill="#F6A2AD" stroke="#F6A2AD" stroke-width="0.0938" d="M184.419,0.309c0.988,0,2.007-0.031,2.995,0
			c1.605,0.834,2.748,2.254,3.768,3.706c1.668,2.656,2.717,5.651,3.799,8.584c2.563,7.875,4.477,15.965,6.237,24.056
			c2.347,10.901,4.386,21.863,6.393,32.826c0.493,2.624,0.987,5.28,1.297,7.937c0.124,0.123,0.37,0.37,0.463,0.463
			c-1.111,1.544-1.544,3.396-2.161,5.157c-1.945,6.269-3.212,12.753-4.293,19.208c-0.834,5.064-1.977,10.098-3.551,14.977
			c-1.174,3.613-2.594,7.195-4.941,10.222c-1.111,1.451-2.625,2.563-4.292,3.304c-2.563,0.278-4.076-2.192-5.312-4.014
			c-2.563-4.479-3.953-9.48-5.436-14.359c-4.879-18.066-8.059-36.563-11.486-54.937c-0.031-0.278-0.186-0.525-0.434-0.648
			c2.439-13.125,5.004-26.249,8.646-39.095c1.421-4.663,2.811-9.388,5.188-13.649C182.072,2.594,183.276,1.451,184.419,0.309z"/>
		<path fill="#F6A2AD" stroke="#F6A2AD" stroke-width="0.0938" d="M0.031,70.563c0.803-0.063,1.606-0.186,2.439-0.186h33.66
			c1.42,0.186,2.903,0.062,4.261,0.68c1.977,0.803,3.737,2.161,5.034,3.859c0.154-0.092,0.433-0.34,0.587-0.463
			c-0.741,5.126-1.946,10.19-2.965,15.285c-1.637,7.752-3.366,15.503-5.527,23.161c-1.39,4.755-2.841,9.542-5.157,13.958
			c-0.803,1.544-2.038,2.841-3.428,3.922c-0.525,0.093-0.926-0.277-1.359-0.556c-1.451-0.927-2.285-2.532-3.181-3.983
			c-4.23-9.635-4.694-20.289-7.318-30.355c-1.328-5.034-2.965-10.037-5.374-14.669c-1.482-2.779-3.304-5.435-5.682-7.565
			C4.262,72.229,2.223,71.087,0.031,70.563z"/>
		<path fill="#EB7077" stroke="#EB7077" stroke-width="0.0938" d="M212.088,73.773c1.945-2.192,4.848-3.582,7.781-3.459h25.322
			c3.521,0.063,7.072-0.123,10.592,0.094c-1.049,0.71-2.315,0.988-3.428,1.574c-3.859,1.76-7.164,4.693-9.264,8.369
			c-3.365,5.867-4.539,12.6-5.527,19.207c-0.988,6.485-0.957,13.187-3.057,19.486c-1.422,4.416-3.583,8.862-7.319,11.766
			c-11.611,0.123-23.222,0.03-34.802,0.062c-0.773,0-1.514,0.03-2.255-0.124c1.667-0.74,3.181-1.853,4.292-3.304
			c2.348-3.026,3.768-6.608,4.941-10.222c1.574-4.879,2.717-9.912,3.551-14.977c1.081-6.455,2.348-12.939,4.293-19.208
			c0.617-1.761,1.05-3.613,2.161-5.157C210.297,76.521,210.914,74.947,212.088,73.773z"/>
	</g>
</g>
</svg>
